{"title":"A Million Ways To Die In The West - 2014 (No Cinavia) 1080p","uid":11184967,"size":4007113757,"categoryP":"video","categoryS":"hd___movies","magnet":"?xt=urn:btih:4e5ef2f42bd428007a03332c4b6bb69b9450b509&amp;dn=A+Million+Ways+To+Die+In+The+West+-+2014+%28No+Cinavia%29+1080p&amp;tr=udp%3A%2F%2Ftracker.openbittorrent.com%3A80&amp;tr=udp%3A%2F%2Fopen.demonii.com%3A1337&amp;tr=udp%3A%2F%2Ftracker.coppersurfer.tk%3A6969&amp;tr=udp%3A%2F%2Fexodus.desync.com%3A6969","seeders":3,"leechers":0,"uploader":"AlienMethod","files":-1,"time":1412905208,"description":"MP4/x264/AAC\nCinavia Removed/CinExHD (ps3-friendly)\n2-Channel AAC@192kbps (audio 1)\n6-Channel AC3@640kbps (audio 2)\nDefault English Subs for Non-English Diologue (mux &amp; file)\n\n&quot;As a cowardly farmer begins to fall for the mysterious new woman in town, he must put his new-found courage to the test when her husband, a notorious gun-slinger, announces his arrival.&quot;\n\nVideo\nID : 1\nFormat : AVC\nFormat/Info : Advanced Video Codec\nFormat profile : &lt;a class=&quot;__cf_email__&quot; href=&quot;/cdn-cgi/l/email-protection&quot; data-cfemail=&quot;a7efcec0cfe7eb938996&quot;&gt;[email&amp;#160;protected]&lt;/a&gt;&lt;script cf-hash='f9e31' type=&quot;text/javascript&quot;&gt;\n/* &lt;![CDATA[ */!function(){try{var t=&quot;currentScript&quot;in document?document.currentScript:function(){for(var t=document.getElementsByTagName(&quot;script&quot;),e=t.length;e--;)if(t[e].getAttribute(&quot;cf-hash&quot;))return t[e]}();if(t&amp;&amp;t.previousSibling){var e,r,n,i,c=t.previousSibling,a=c.getAttribute(&quot;data-cfemail&quot;);if(a){for(e=&quot;&quot;,r=parseInt(a.substr(0,2),16),n=2;a.length-n;n+=2)i=parseInt(a.substr(n,2),16)^r,e+=String.fromCharCode(i);e=document.createTextNode(e),c.parentNode.replaceChild(e,c)}}}catch(u){}}();/* ]]&gt; */&lt;/script&gt;\nFormat settings, CABAC : Yes\nFormat settings, ReFrames : 5 frames\nCodec ID : avc1\nCodec ID/Info : Advanced Video Coding\nDuration : 1h 56mn\nBit rate : 3 750 Kbps\nMaximum bit rate : 12.6 Mbps\nWidth : 1 920 pixels\nHeight : 800 pixels\nDisplay aspect ratio : 2.40:1\nFrame rate mode : Constant\nFrame rate : 23.976 fps\nColor space : YUV\nChroma subsampling : 4:2:0\nBit depth : 8 bits\nScan type : Progressive\nBits/(Pixel*Frame) : 0.102\nStream size : 3.04 GiB (81%)\nTitle : AmillionWays(CinEx).h264\nWriting library : x264 core 142 r2431 ac76440\nEncoded date : UTC 2014-10-09 21:46:30\nTagged date : UTC 2014-10-09 21:46:48\n\nAudio #1\nID : 2\nFormat : AAC\nFormat/Info : Advanced Audio Codec\nFormat profile : LC\nCodec ID : 40\nDuration : 1h 56mn\nBit rate mode : Variable\nBit rate : 211 Kbps\nMaximum bit rate : 265 Kbps\nChannel(s) : 2 channels\nChannel positions : Front: L R\nSampling rate : 48.0 KHz\nCompression mode : Lossy\nStream size : 175 MiB (5%)\nTitle : AmillionWays(CinEx)AAC.m4a\nEncoded date : UTC 2014-10-09 21:46:44\nTagged date : UTC 2014-10-09 21:46:48\n\nAudio #2\nID : 3\nFormat : AC-3\nFormat/Info : Audio Coding 3\nMode extension : CM (complete main)\nFormat settings, Endianness : Big\nCodec ID : ac-3\nDuration : 1h 56mn\nBit rate mode : Constant\nBit rate : 640 Kbps\nChannel(s) : 6 channels\nChannel positions : Front: L C R, Side: L R, LFE\nSampling rate : 48.0 KHz\nBit depth : 16 bits\nCompression mode : Lossy\nStream size : 531 MiB (14%)\nTitle : AmillionWays(CinEx)AC3.ac3\nEncoded date : UTC 2014-10-09 21:46:45\nTagged date : UTC 2014-10-09 21:46:48\n\nText\nID : 4\nFormat : Timed Text\nCodec ID : tx3g\nDuration : 1h 42mn\nBit rate mode : Variable\nBit rate : 2 bps\nStream size : 1.53 KiB (0%)\nTitle : A.Million.Ways.To.Die.In.The.West(NoCinavia)1080p.srt\nEncoded date : UTC 2014-10-09 21:46:48\nTagged date : UTC 2014-10-09 21:46:48\n\nm/ AM m/","torrent":{"xt":"urn:btih:4e5ef2f42bd428007a03332c4b6bb69b9450b509","amp;dn":"A+Million+Ways+To+Die+In+The+West+-+2014+%28No+Cinavia%29+1080p","amp;tr":["udp%3A%2F%2Ftracker.openbittorrent.com%3A80","udp%3A%2F%2Fopen.demonii.com%3A1337","udp%3A%2F%2Ftracker.coppersurfer.tk%3A6969","udp%3A%2F%2Fexodus.desync.com%3A6969"],"infoHash":"4e5ef2f42bd428007a03332c4b6bb69b9450b509","infoHashBuffer":{"type":"Buffer","data":[78,94,242,244,43,212,40,0,122,3,51,44,75,107,182,155,148,80,181,9]},"announce":[],"urlList":[]}}